<svg width="28" height="25" viewBox="0 0 28 25" fill="none" xmlns="http://www.w3.org/2000/svg">
<path d="M25.714 10.286H25.741C26.206 10.286 26.626 10.478 26.926 10.788C27.236 11.089 27.428 11.509 27.428 11.974V12.002V12.001V12.028C27.428 12.493 27.236 12.913 26.926 13.213C26.625 13.523 26.205 13.715 25.74 13.715H25.712H25.713H25.512L23.971 22.584C23.9058 22.9826 23.697 23.3436 23.384 23.599L23.381 23.601C23.091 23.85 22.711 24.002 22.296 24.002H5.12899C4.71399 24.002 4.33399 23.85 4.04199 23.599L4.04399 23.601C3.73204 23.3476 3.52302 22.9893 3.45599 22.593L3.45499 22.583L1.91399 13.714H1.68599C1.22099 13.714 0.800994 13.522 0.500994 13.212C0.341941 13.0582 0.215516 12.8739 0.129266 12.6701C0.0430159 12.4663 -0.00128968 12.2473 -0.00100572 12.026V11.972C-0.00100572 11.507 0.190994 11.087 0.500994 10.787C0.801994 10.477 1.22199 10.285 1.68699 10.285H1.71499H1.71399L25.714 10.286ZM6.49099 21C6.6032 20.9923 6.71264 20.9618 6.81257 20.9102C6.91249 20.8586 7.00079 20.7871 7.07199 20.7L7.07299 20.699C7.14896 20.6146 7.20666 20.5155 7.24246 20.4078C7.27825 20.3 7.29137 20.186 7.28099 20.073V20.076L6.85199 14.504C6.84434 14.3918 6.81377 14.2824 6.76217 14.1824C6.71057 14.0825 6.63904 13.9942 6.55199 13.923L6.55099 13.922C6.46664 13.846 6.36748 13.7883 6.25975 13.7525C6.15201 13.7167 6.03804 13.7036 5.92499 13.714H5.92799C5.81579 13.7217 5.70635 13.7522 5.60642 13.8038C5.50649 13.8554 5.4182 13.927 5.34699 14.014L5.34599 14.015C5.27002 14.0994 5.21233 14.1985 5.17653 14.3062C5.14074 14.414 5.12762 14.528 5.13799 14.641V14.638L5.56699 20.21C5.58127 20.426 5.67964 20.6277 5.84099 20.772L5.84199 20.773C5.99637 20.9195 6.20115 21.0012 6.41399 21.001H6.42499H6.42399L6.49099 21ZM11.996 20.144V14.564C11.9963 14.4529 11.974 14.3429 11.9303 14.2408C11.8866 14.1387 11.8225 14.0465 11.742 13.97C11.6652 13.8895 11.5729 13.8255 11.4706 13.7818C11.3683 13.7382 11.2582 13.7158 11.147 13.716H11.131C11.0199 13.7157 10.9099 13.738 10.8078 13.7817C10.7056 13.8254 10.6135 13.8895 10.537 13.97C10.4565 14.0468 10.3925 14.1391 10.3488 14.2414C10.3052 14.3437 10.2828 14.4538 10.283 14.565V20.153C10.283 20.387 10.38 20.598 10.537 20.747C10.6138 20.8275 10.7061 20.8915 10.8084 20.9352C10.9107 20.9788 11.0208 21.0012 11.132 21.001H11.148C11.2591 21.0013 11.3691 20.979 11.4712 20.9353C11.5733 20.8916 11.6655 20.8275 11.742 20.747C11.8236 20.6702 11.8885 20.5776 11.9329 20.4747C11.9773 20.3719 12.0001 20.261 12 20.149V20.143L11.996 20.144ZM17.139 20.144V14.564C17.1393 14.4529 17.117 14.3429 17.0733 14.2408C17.0296 14.1387 16.9655 14.0465 16.885 13.97C16.8082 13.8895 16.7159 13.8255 16.6136 13.7818C16.5113 13.7382 16.4012 13.7158 16.29 13.716H16.274C16.1629 13.7157 16.0529 13.738 15.9508 13.7817C15.8486 13.8254 15.7565 13.8895 15.68 13.97C15.5995 14.0468 15.5355 14.1391 15.4918 14.2414C15.4482 14.3437 15.4258 14.4538 15.426 14.565V20.153C15.426 20.387 15.523 20.598 15.68 20.747C15.7568 20.8275 15.8491 20.8915 15.9514 20.9352C16.0537 20.9788 16.1638 21.0012 16.275 21.001H16.291C16.4021 21.0013 16.5121 20.979 16.6142 20.9353C16.7163 20.8916 16.8085 20.8275 16.885 20.747C16.9666 20.6702 17.0315 20.5776 17.0759 20.4747C17.1203 20.3719 17.1431 20.261 17.143 20.149V20.143L17.139 20.144ZM21.853 20.21L22.282 14.638C22.2917 14.5253 22.2782 14.4118 22.2424 14.3045C22.2067 14.1972 22.1494 14.0983 22.074 14.014L22.075 14.015C22.004 13.9278 21.9159 13.8561 21.8162 13.8042C21.7164 13.7522 21.6071 13.7212 21.495 13.713H21.492C21.3793 13.7033 21.2658 13.7168 21.1585 13.7525C21.0512 13.7883 20.9523 13.8456 20.868 13.921L20.869 13.92C20.7818 13.991 20.7101 14.0791 20.6582 14.1788C20.6062 14.2786 20.5752 14.3879 20.567 14.5V14.503L20.138 20.075C20.1283 20.1877 20.1418 20.3012 20.1775 20.4085C20.2133 20.5158 20.2706 20.6147 20.346 20.699L20.345 20.698C20.416 20.7852 20.5041 20.8569 20.6038 20.9088C20.7036 20.9608 20.8129 20.9918 20.925 21H21.005C21.2181 21 21.4231 20.9184 21.578 20.772C21.7414 20.6279 21.8416 20.4253 21.857 20.208V20.205L21.853 20.21ZM6.37499 3.91L5.12999 9.428H3.36199L4.71399 3.522C4.87699 2.737 5.30399 2.072 5.89599 1.607L5.90299 1.602C6.49876 1.11887 7.24296 0.856089 8.00999 0.858H8.04799H8.04599H10.282V0.850001C10.282 0.616001 10.379 0.405 10.536 0.256C10.6128 0.175268 10.7053 0.111025 10.8078 0.067185C10.9102 0.0233449 11.0205 0.000826042 11.132 0.00100046H16.294C16.528 0.00100046 16.739 0.0980004 16.888 0.255C16.9685 0.331768 17.0325 0.424104 17.0762 0.526392C17.1198 0.62868 17.1422 0.738782 17.142 0.850001V0.858H19.415C20.216 0.858 20.951 1.138 21.527 1.606L21.521 1.601C22.1276 2.07442 22.5473 2.74705 22.706 3.5L22.71 3.521L24.062 9.427H22.294L21.049 3.909C20.9585 3.53033 20.7455 3.19215 20.443 2.947L20.44 2.944C20.1457 2.70094 19.7757 2.56831 19.394 2.569H17.139V2.577C17.1393 2.68809 17.117 2.79807 17.0733 2.90021C17.0296 3.00235 16.9655 3.09449 16.885 3.171C16.8082 3.25148 16.7159 3.31549 16.6136 3.35916C16.5113 3.40283 16.4012 3.42523 16.29 3.425H11.132C11.0209 3.42532 10.9109 3.40296 10.8088 3.35929C10.7066 3.31561 10.6145 3.25154 10.538 3.171C10.4575 3.09423 10.3935 3.0019 10.3498 2.89961C10.3062 2.79732 10.2838 2.68722 10.284 2.576V2.568H8.02899C7.64638 2.56757 7.27565 2.70093 6.98099 2.945L6.98399 2.943C6.68372 3.18619 6.47182 3.52143 6.38099 3.897L6.37899 3.909L6.37499 3.91Z" fill="#524E4E"/>
</svg>
