<svg width="22" height="24" viewBox="0 0 22 24" fill="none" xmlns="http://www.w3.org/2000/svg">
<path d="M11 0C8.82441 0 6.69767 0.703788 4.88873 2.02236C3.07979 3.34094 1.66989 5.21508 0.83733 7.4078C0.00476611 9.60051 -0.213071 12.0133 0.211367 14.3411C0.635804 16.6689 1.68345 18.807 3.22183 20.4853C4.76021 22.1635 6.72022 23.3064 8.85401 23.7694C10.9878 24.2324 13.1995 23.9948 15.2095 23.0865C17.2195 22.1783 18.9375 20.6402 20.1462 18.6668C21.3549 16.6934 22 14.3734 22 12C21.9967 8.81851 20.8367 5.76838 18.7745 3.51873C16.7123 1.26908 13.9164 0.00362976 11 0ZM6.28572 20.8946V19.7143C6.28634 19.0325 6.53488 18.3788 6.9768 17.8968C7.41871 17.4147 8.0179 17.1435 8.64286 17.1429H13.3571C13.9821 17.1435 14.5813 17.4147 15.0232 17.8968C15.4651 18.3788 15.7137 19.0325 15.7143 19.7143V20.8946C14.2836 21.8059 12.6567 22.2861 11 22.2861C9.34331 22.2861 7.71637 21.8059 6.28572 20.8946ZM17.2794 19.6509C17.2638 18.5266 16.8439 17.454 16.1102 16.6642C15.3766 15.8744 14.3879 15.4307 13.3571 15.4286H8.64286C7.61215 15.4307 6.62345 15.8744 5.88979 16.6642C5.15613 17.454 4.73623 18.5266 4.72058 19.6509C3.29573 18.2629 2.29094 16.4356 1.83923 14.4109C1.38753 12.3861 1.51023 10.2594 2.19108 8.31245C2.87193 6.36546 4.07882 4.69 5.65194 3.50791C7.22506 2.32583 9.0902 1.69288 11.0004 1.69288C12.9106 1.69288 14.7757 2.32583 16.3489 3.50791C17.922 4.69 19.1289 6.36546 19.8097 8.31245C20.4906 10.2594 20.6133 12.3861 20.1616 14.4109C19.7099 16.4356 18.7051 18.2629 17.2802 19.6509H17.2794Z" fill="#524E4E"/>
<path d="M11 5C10.2089 5 9.43552 5.26392 8.77772 5.75839C8.11992 6.25285 7.60723 6.95566 7.30448 7.77792C7.00173 8.60019 6.92252 9.50499 7.07686 10.3779C7.2312 11.2508 7.61216 12.0526 8.17157 12.682C8.73098 13.3113 9.44372 13.7399 10.2196 13.9135C10.9956 14.0872 11.7998 13.9981 12.5307 13.6575C13.2616 13.3169 13.8864 12.7401 14.3259 12.0001C14.7654 11.26 15 10.39 15 9.5C15 8.30652 14.5786 7.16193 13.8284 6.31802C13.0783 5.47411 12.0609 5 11 5ZM11 12.2C10.5253 12.2 10.0613 12.0416 9.66663 11.745C9.27195 11.4483 8.96434 11.0266 8.78269 10.5332C8.60104 10.0399 8.55351 9.497 8.64612 8.97326C8.73872 8.44951 8.9673 7.96841 9.30294 7.59081C9.63859 7.21321 10.0662 6.95606 10.5318 6.85188C10.9973 6.7477 11.4799 6.80117 11.9184 7.00552C12.357 7.20988 12.7318 7.55595 12.9955 7.99996C13.2592 8.44397 13.4 8.96599 13.4 9.5C13.3994 10.2159 13.1463 10.9022 12.6964 11.4084C12.2464 11.9146 11.6363 12.1993 11 12.2Z" fill="#524E4E"/>
</svg>
